<?xml version="1.0" standalone="no"?>
<!DOCTYPE svg PUBLIC "-//W3C//DTD SVG 20010904//EN"
 "http://www.w3.org/TR/2001/REC-SVG-20010904/DTD/svg10.dtd">
<svg version="1.0" xmlns="http://www.w3.org/2000/svg"
 width="400.000000pt" height="400.000000pt" viewBox="0 0 400.000000 400.000000"
 preserveAspectRatio="xMidYMid meet">
<metadata>
Created by potrace 1.11, written by Peter Selinger 2001-2013
</metadata>
<g transform="translate(0.000000,400.000000) scale(0.100000,-0.100000)"
fill="#000000" stroke="none">
<path d="M1775 3585 c-578 -88 -1057 -471 -1265 -1012 -31 -80 -62 -188 -75
-258 -4 -22 -9 -51 -12 -65 -19 -98 -23 -300 -9 -433 37 -351 212 -708 466
-956 216 -209 457 -345 740 -414 152 -37 158 -38 350 -42 170 -4 300 8 405 36
22 6 47 12 56 14 40 8 182 61 258 97 373 177 662 488 812 876 71 183 101 349
102 562 2 271 -46 480 -168 725 -235 472 -669 788 -1195 868 -114 18 -355 19
-465 2z m-182 -970 c222 -223 408 -405 412 -405 4 0 190 182 413 405 222 223
408 405 411 405 4 0 50 -44 104 -98 l98 -98 -412 -412 -411 -412 411 -412 412
-412 -98 -98 c-54 -54 -100 -98 -104 -98 -3 0 -189 182 -411 405 -223 223
-409 405 -413 405 -4 0 -190 -182 -413 -405 -222 -223 -408 -405 -411 -405 -4
0 -50 44 -104 98 l-98 98 412 412 411 412 -411 412 -412 412 98 98 c54 54 101
98 104 98 4 0 189 -182 412 -405z"/>
</g>
</svg>
